<svg width="32" height="32" viewBox="0 0 32 32" fill="none" xmlns="http://www.w3.org/2000/svg">
<rect x="0.5" y="0.5" width="31" height="31" rx="7.5" fill="#F7F8FA" stroke="#E6E8EB"/>
<path d="M14.3333 7.66667L13.4999 8.50001H10.1666C9.66659 8.50001 9.33325 8.83334 9.33325 9.33334C9.33325 9.83334 9.66659 10.1667 10.1666 10.1667H11.8333H20.1666H21.8333C22.3333 10.1667 22.6666 9.83334 22.6666 9.33334C22.6666 8.83334 22.3333 8.50001 21.8333 8.50001H18.4999L17.6666 7.66667H14.3333ZM10.1666 11.8333V22.6667C10.1666 23.5833 10.9166 24.3333 11.8333 24.3333H20.1666C21.0833 24.3333 21.8333 23.5833 21.8333 22.6667V11.8333H10.1666ZM13.4999 13.5C13.9999 13.5 14.3333 13.8333 14.3333 14.3333V21.8333C14.3333 22.3333 13.9999 22.6667 13.4999 22.6667C12.9999 22.6667 12.6666 22.3333 12.6666 21.8333V14.3333C12.6666 13.8333 12.9999 13.5 13.4999 13.5ZM18.4999 13.5C18.9999 13.5 19.3333 13.8333 19.3333 14.3333V21.8333C19.3333 22.3333 18.9999 22.6667 18.4999 22.6667C17.9999 22.6667 17.6666 22.3333 17.6666 21.8333V14.3333C17.6666 13.8333 17.9999 13.5 18.4999 13.5Z" fill="#D90B1C"/>
</svg>
