<svg width="32" height="32" viewBox="0 0 32 32" fill="none" xmlns="http://www.w3.org/2000/svg">
<rect x="0.5" y="0.5" width="31" height="31" rx="7.5" fill="#F7F8FA" stroke="#E6E8EB"/>
<path d="M22.5348 8.46492C22.2253 8.1554 21.819 7.99999 21.4126 7.99999C21.0063 7.99999 20.6 8.1554 20.2905 8.46492C20.2905 8.46492 20.2675 8.48658 20.2382 8.51715C20.2357 8.5197 20.2319 8.52097 20.2293 8.52352L8.75011 20.0015C8.71062 20.0423 8.68132 20.092 8.66604 20.148L8.01132 22.5898C7.98075 22.7019 8.0126 22.8217 8.09539 22.9045C8.15781 22.9669 8.2406 23 8.32594 23C8.35397 23 8.38199 22.9962 8.41001 22.9885L10.8518 22.3338C10.9079 22.3185 10.9575 22.2892 10.9983 22.2485L22.4762 10.7717C22.4801 10.7679 22.4813 10.7628 22.4839 10.759C22.5132 10.7297 22.5336 10.7093 22.5336 10.7093C23.1552 10.089 23.1552 9.08398 22.5348 8.46492ZM22.0737 8.92603C22.438 9.29033 22.438 9.88391 22.0737 10.2482C21.9655 10.3552 21.8737 10.4482 21.7948 10.5272L20.4726 9.20499C20.6229 9.05468 20.7516 8.92603 20.7516 8.92603C20.9273 8.74898 21.163 8.65217 21.4126 8.65217C21.6623 8.65217 21.8967 8.75025 22.0737 8.92603ZM9.17555 20.7671L10.2328 21.8243L8.78705 22.2128L9.17555 20.7671Z" fill="black"/>
</svg>
