<svg width="302" height="96" viewBox="0 0 302 96" fill="none" xmlns="http://www.w3.org/2000/svg">
<path d="M69.0313 60.7102C71.0542 62.1261 72.4583 64.6249 72.4583 66.5833C72.4583 69.0312 71.9688 70.7447 70.2552 72.4583C70.2552 72.4583 70.5 72.7031 71.724 72.7031C78.5781 72.7031 80.2917 68.8961 80.2917 67.5624C80.2917 63.6458 76.375 62.6666 76.375 62.6666C77.599 62.6372 78.7603 62.7332 79.9118 63.0289C83.2076 63.8729 85.6751 65.7197 87.2144 68.7551C87.8136 69.9379 88.1074 71.1168 88.123 72.2683C88.1544 74.538 87.1439 76.8626 84.9408 78.8209C81.3198 82.0424 74.6615 82.2499 74.4167 82.2499C75.061 82.9608 76.8646 84.4531 79.5573 84.4531C80.7813 84.4531 82.25 84.2083 82.25 84.2083C82.1795 84.3003 80.7813 85.9218 77.08 87.2946C75.5603 87.8018 74.0211 88.1014 72.4583 88.1249C71.5379 88.1387 70.6116 88.0564 69.6775 87.8664C65.9449 87.1105 63.3815 84.925 61.7737 81.588C61.2371 80.4757 60.7083 78.0885 60.7083 77.5989C59.4981 78.7817 58.795 80.2172 58.75 81.7604C58.9948 84.9427 60.7338 86.1314 60.7083 86.1666C60.4263 86.0511 54.8333 84.9427 54.8333 77.1093C54.8079 75.8521 54.8392 74.8357 54.8333 73.6822C54.8235 71.6632 53.9031 69.981 52.3228 68.6787C49.6614 66.4854 46.9902 64.2999 44.3073 62.132C42.4762 60.6515 41.3345 58.8302 41.3091 56.4509C41.2934 54.9664 40.5904 53.8796 39.431 53.0042C38.7025 52.4539 37.9642 51.9056 37.3043 51.2809C36.1391 50.1764 35.9217 48.8094 36.3192 47.2722C36.3878 47.3289 36.4446 47.3524 36.4524 47.3877C36.9087 49.2364 38.3187 49.9081 40.0381 50.1862C40.9605 50.335 41.9005 50.3996 42.8111 50.5935C43.7668 50.7991 44.3093 51.4728 44.5286 52.3952C44.6637 52.965 44.7714 53.5427 44.9046 54.1126C45.1611 55.2112 45.7192 55.6695 46.857 55.7419C47.6051 55.7889 48.3552 55.8262 49.1013 55.9006C50.2704 56.0181 51.2848 56.4861 52.1915 57.2244C55.3523 59.7977 58.5287 62.3533 61.6914 64.9226C62.5041 65.5806 63.8906 66.5833 65.3594 66.5833C67.0729 66.5833 69.276 65.3593 69.276 62.9114C69.276 61.4427 69.0313 60.7102 69.0313 60.7102Z" fill="#FFFAFA"/>
<path d="M50.7032 70.6429C48.4727 68.8041 46.2304 66.9769 43.9842 65.1557C42.7289 67.1904 37.8977 74.4147 31.0807 74.4147C27.7006 74.4147 24.6065 72.4309 23.0104 69.3387C22.0508 67.4783 21.5417 65.3202 21.5417 63.403C21.5417 55.0801 26.7802 50.5269 26.9055 50.3644C25.4838 50.0138 24.4126 50.1627 23.2552 50.9323C22.0841 51.7117 19.9672 53.0414 19.8125 53.1237C19.5833 53.1198 19.5833 53.1198 19.5833 52.875L20.3177 47.9791C19.1897 48.3591 16.6458 49.6927 13.7083 52.6302C12.2396 54.0989 11.0509 55.4032 11.0509 55.4032C10.2813 52.6302 11.5052 47.7343 11.7441 46.0208C11.8851 45.0221 11.4993 45.0416 11.4993 45.0416C11.0098 45.0416 9.54688 46.5398 8.8125 47.3055C6.5428 49.6672 5.10146 52.3658 4.28876 55.5461C4.13601 56.1493 4.04005 56.915 3.91667 57.526C3.96367 57.5417 5.14063 55.8125 6.1198 55.8125C6.60938 55.8125 6.63875 56.5625 6.62309 56.8269C6.59763 57.2362 6.45859 57.6455 6.32934 58.043C5.42067 60.8532 4.90171 63.6948 4.88017 66.5833C4.87038 67.9071 4.96634 69.2388 5.17588 70.5822C5.53425 72.8676 6.09042 74.54 7.097 76.6198C8.51875 79.5573 11.0783 82.1266 11.2585 82.25C11.1351 81.8309 10.8903 81.261 10.8492 80.9379C10.7669 80.3132 10.6396 79.6708 10.7082 79.054C10.7943 78.2785 11.4719 78.1022 12.0359 78.6506C12.2885 78.8973 15.0615 81.5195 16.6968 82.5888C20.4039 85.0093 24.3147 86.1529 28.3958 86.1666C30.5167 86.1745 32.6826 85.8768 34.8916 85.2971C38.0876 84.457 40.9076 82.9021 43.4221 80.8028C46.6436 78.1159 49.1248 74.6693 51.1007 71.0326C50.9715 70.9014 50.856 70.7683 50.7032 70.6429ZM61.335 43.2458C57.434 45.8191 54.1792 50.0941 51.3377 53.7503C51.3181 53.7758 51.3064 53.8032 51.2927 53.8287C52.1759 54.1498 53.018 54.612 53.7993 55.2485C54.8431 56.0984 55.8889 56.9424 56.9346 57.7904C57.0188 57.62 57.0972 57.4653 57.1657 57.3223C59.1025 53.3332 61.4408 48.5568 64.4037 45.2179C67.2981 41.9553 72.38 40.9468 76.1517 42.768C76.6217 42.9952 77.0017 43.0951 77.3737 43.0814C77.7537 43.0676 78.1257 42.9384 78.5781 42.7034C81.5274 41.1798 84.7136 40.4121 88.0349 40.4337C88.689 40.4396 90.0833 40.6354 90.0833 40.6354C88.8594 39.4114 87.2555 38.1679 85.8612 37.3826C83.2664 35.9236 80.5991 35.25 77.8438 35.25C73.9271 35.25 71.9688 36.472 70.921 36.472C70.5 36.472 70.2944 36.3584 70.1495 36.1665C70.0222 36 70.0711 35.626 70.169 35.3929C70.7448 34.2708 72.3291 33.3798 72.4583 33.2916C71.2344 33.2916 68.5358 34.7428 66.9828 35.9452C65.939 36.752 64.9031 37.5686 63.8515 38.3657C63.64 38.5263 63.3854 38.6536 63.1308 38.728C62.4395 38.9297 62.087 38.5889 62.2907 37.9172C62.3827 37.6156 62.5237 37.3219 62.6804 37.0477C62.933 36.6032 63.2189 36.1763 63.5127 35.7102C56.0573 40.3926 54.7805 46.8159 54.8333 46.7571C57.0228 44.3758 59.4981 42.5173 62.4219 41.1269C65.3496 39.7346 68.5417 38.9238 72.2135 38.9238C72.2135 38.9238 72.4583 39.1216 72.4583 39.1686C72.4583 39.1686 70.9896 39.1686 69.4327 39.6327C66.4933 40.3084 63.826 41.6009 61.335 43.2458Z" fill="#FFFAFA"/>
<path d="M32.8021 22.0313C32.8021 23.0104 33.0606 23.9837 33.3406 24.7984C34.0691 26.9251 35.4674 28.6446 37.0595 30.2034C38.6301 31.7407 40.2888 33.1899 41.8907 34.6958C43.5063 36.2135 44.9105 37.8879 45.7447 39.9559C46.2167 41.125 46.4497 42.3372 46.2656 43.5945C46.2147 43.945 46.344 44.1134 46.6553 44.2466C47.4504 44.5854 47.9557 45.1474 47.9987 46.0385C48.0183 46.4595 48.2807 46.3929 48.5334 46.2617C49.9355 45.5332 50.5798 44.4307 50.6699 44.3093C50.8305 44.6441 50.9186 45.0593 50.9147 45.5332C50.8912 48.1691 48.5549 52.4951 46.3557 53.3568C46.3851 53.1649 46.4066 53.0101 46.434 52.8554C46.7435 51.1164 45.8779 49.6908 44.1761 49.1229C43.0265 48.739 42.0767 48.7312 40.8763 48.7136C40.6922 48.7116 40.1772 48.7136 39.8971 48.7136C39.9892 48.5021 40.6667 47.1019 40.8175 46.5574C41.033 45.7839 40.751 45.2316 39.9578 45.0574C39.0981 44.8674 38.2032 44.7479 37.3239 44.7519C35.3029 44.7616 33.2995 45.0045 31.3333 45.4804C31.0592 45.5469 30.6166 45.6879 30.3483 45.7761C32.0618 45.7761 34.265 46.5104 34.265 46.5104C34.265 46.5104 33.2858 48.4688 33.2858 49.6927C33.2858 50.6719 33.7754 51.4063 34.265 51.4063C34.7545 51.4063 35.0267 51.0773 35.25 50.9167C35.205 51.183 34.9347 52.5911 34.8975 53.253C34.8407 54.2929 35.25 54.8334 36.474 54.8334C36.7187 54.8334 36.9635 54.8334 37.2083 54.8334C36.7187 56.5469 33.0332 58.8029 30.8437 58.75C30.6988 58.7461 30.5637 58.7324 30.4364 58.7069C31.3333 58.2604 32.6846 56.5469 32.6846 55.8145L29.7627 56.1866C29.7627 56.1866 30.7595 54.943 31.0787 54.3183C31.9071 52.7027 31.9992 51.0518 30.9025 49.5086C29.9762 48.2044 28.4761 47.6463 26.9271 47.4916C24.4792 47.4916 23.2063 48.177 23.0104 48.2259C24.1247 45.7976 25.7149 44.2995 28.151 43.0853C26.1927 42.1061 24.2344 41.8614 24.2344 41.8614C26.1927 40.6374 29.1302 39.6582 31.3333 39.1686C31.0885 39.1686 30.4775 39.1765 30.3542 39.1686C23.0104 39.1686 20.1336 42.9639 20.0729 43.0853C21.2577 43.289 22.0312 43.3301 23.5 43.8197C23.5 43.8197 19.5833 44.5541 13.7083 48.9603C13.7475 48.739 14.4427 47.2468 14.4427 45.778C14.4427 40.6374 7.93321 41.6675 7.83334 41.6166C7.99196 41.4736 9.30209 40.3926 13.44 38.3951C14.2155 37.976 16.401 36.9655 16.401 35.7416C16.401 34.028 13.0033 31.5311 12.7292 31.3353C15.4219 31.3353 16.9337 31.5879 19.0938 32.0697C17.9423 30.1035 17.6211 28.0551 18.142 26.0224C18.9763 27.589 20.1748 28.8189 21.6357 29.7824C22.9791 30.6695 24.395 31.4509 25.7697 32.2929C26.8115 32.9314 27.8925 33.5228 28.856 34.2611C29.5963 34.829 30.1818 35.5947 30.83 36.2742C30.9377 36.3878 31.0239 36.521 31.1218 36.6444C31.1786 36.6169 31.2335 36.5895 31.2902 36.5621C31.1355 36.1763 31.0122 35.7749 30.8222 35.4047C30.0526 33.9066 28.9148 32.7061 27.5067 31.7779C26.929 31.396 26.6137 30.9436 26.5021 30.3033C26.1672 28.4056 26.1594 26.5452 26.5237 24.722C26.7215 23.737 27.9062 21.5417 27.9062 21.5417V21.7865C27.9728 24.3813 28.9598 26.4591 30.599 28.3959C32.3184 30.4266 34.5685 31.9306 36.5072 33.7421C39.901 36.9636 41.3463 38.7711 41.6146 39.1667C41.6146 39.1667 41.5147 38.7476 41.454 38.6125C40.5218 36.4759 39.012 34.7546 37.3219 33.1722C35.8532 31.7975 34.3609 30.4443 32.8667 29.095C32.3262 28.6054 32.007 28.0238 31.9208 27.3129C31.5781 24.4792 32.7766 22.0489 32.8021 22.0313ZM37.2083 39.1667C37.2083 39.1667 37.365 40.14 37.598 40.6217C38.6771 42.8386 41.125 43.0834 41.125 43.0834C41.125 43.0834 41.125 41.3698 38.6771 39.6563C37.9545 39.151 37.2083 39.1667 37.2083 39.1667Z" fill="#FFFAFA"/>
<path d="M15.6667 24.724C16.1563 22.276 17.625 19.5833 17.625 19.5833C17.625 19.5833 18.5317 22.6638 20.0729 24.724C20.8347 25.7423 21.853 26.8742 23.0378 27.6556C23.2611 27.8025 23.4863 27.9474 23.7154 28.0903C23.6723 26.7704 23.7761 25.4779 24.0268 24.2246C24.2403 23.1573 24.9903 21.6239 25.4564 20.7309V20.5625C25.4583 16.777 28.0884 13.7083 31.3333 13.7083C34.5783 13.7083 37.2083 16.777 37.2083 20.5625C37.2083 23.2591 36.991 24.5947 36.6776 25.4583C36.6502 25.5308 36.6228 25.5974 36.5954 25.6659C36.8519 26.0811 37.1574 26.5002 37.506 26.929C37.5275 26.9545 37.5452 26.98 37.5667 27.0054C37.9329 27.448 38.35 27.9043 38.8396 28.3841C39.762 29.2869 40.751 30.1897 41.7047 31.0611C42.3509 31.6506 42.9972 32.24 43.6336 32.8393C43.7883 32.9842 43.9117 33.1272 44.0586 33.2721C47.0823 29.9899 48.9583 25.7364 48.9583 21.5417C48.9583 11.75 41.0682 5.875 31.3333 5.875C21.5985 5.875 13.7083 11.9948 13.7083 21.5417C13.7083 23.923 14.3311 26.318 15.4023 28.5525C15.3318 27.497 15.4552 25.7854 15.6667 24.724Z" fill="#FFFAFA"/>
<path d="M100.14 50.5H113.1C117.48 50.5 121.08 51.595 123.9 53.785C126.75 55.945 128.175 58.975 128.175 62.875V69.58C128.175 73.66 126.795 76.75 124.035 78.85C121.275 80.95 117.645 82 113.145 82H100.14C99.81 82 99.525 81.88 99.285 81.64C99.045 81.4 98.925 81.115 98.925 80.785V51.715C98.925 51.385 99.045 51.1 99.285 50.86C99.525 50.62 99.81 50.5 100.14 50.5ZM110.175 59.275V73.225H113.1C114.12 73.225 114.93 72.925 115.53 72.325C116.16 71.695 116.475 70.78 116.475 69.58V62.875C116.475 60.475 115.35 59.275 113.1 59.275H110.175ZM162.094 80.515C162.184 80.695 162.229 80.89 162.229 81.1C162.229 81.31 162.124 81.52 161.914 81.73C161.734 81.91 161.509 82 161.239 82H152.014C151.084 82 150.439 81.595 150.079 80.785L146.209 72.19H144.364V80.785C144.364 81.115 144.244 81.4 144.004 81.64C143.764 81.88 143.479 82 143.149 82H134.329C133.999 82 133.714 81.88 133.474 81.64C133.234 81.4 133.114 81.115 133.114 80.785V51.715C133.114 51.385 133.234 51.1 133.474 50.86C133.714 50.62 133.999 50.5 134.329 50.5H147.649C151.969 50.5 155.344 51.475 157.774 53.425C160.204 55.345 161.419 58.12 161.419 61.75C161.419 65.35 159.799 68.185 156.559 70.255L162.094 80.515ZM144.364 58.87V63.64H147.649C148.309 63.64 148.819 63.43 149.179 63.01C149.539 62.56 149.719 62.005 149.719 61.345C149.719 60.685 149.539 60.115 149.179 59.635C148.849 59.125 148.339 58.87 147.649 58.87H144.364ZM176.368 50.5H186.133C187.213 50.5 187.888 50.995 188.158 51.985L198.193 80.695C198.223 80.785 198.238 80.935 198.238 81.145C198.238 81.325 198.133 81.52 197.923 81.73C197.743 81.91 197.518 82 197.248 82H188.923C188.023 82 187.438 81.625 187.168 80.875L186.088 77.905H176.413L175.333 80.875C175.063 81.625 174.478 82 173.578 82H165.253C164.983 82 164.743 81.91 164.533 81.73C164.353 81.52 164.263 81.325 164.263 81.145C164.263 80.935 164.278 80.785 164.308 80.695L174.343 51.985C174.613 50.995 175.288 50.5 176.368 50.5ZM178.708 69.13H183.793L181.228 60.76L178.708 69.13ZM218 63.01H230.375C230.705 63.01 230.99 63.13 231.23 63.37C231.47 63.61 231.59 63.895 231.59 64.225V70.075C231.59 74.035 230.18 77.095 227.36 79.255C224.54 81.385 220.775 82.45 216.065 82.45C211.385 82.45 207.695 81.415 204.995 79.345C202.295 77.245 200.945 74.11 200.945 69.94V62.38C200.945 58.39 202.325 55.345 205.085 53.245C207.845 51.115 211.52 50.05 216.11 50.05C220.73 50.05 224.465 51.025 227.315 52.975C230.165 54.895 231.59 57.265 231.59 60.085C231.59 60.355 231.485 60.595 231.275 60.805C231.095 60.985 230.87 61.075 230.6 61.075H220.655C220.055 61.075 219.62 60.91 219.35 60.58C218.75 59.8 218.3 59.35 218 59.23C217.31 58.96 216.68 58.825 216.11 58.825C213.8 58.825 212.645 59.95 212.645 62.2V69.85C212.645 72.4 213.875 73.675 216.335 73.675C218.855 73.675 220.115 72.595 220.115 70.435H218C217.67 70.435 217.385 70.315 217.145 70.075C216.905 69.835 216.785 69.55 216.785 69.22V64.225C216.785 63.895 216.905 63.61 217.145 63.37C217.385 63.13 217.67 63.01 218 63.01ZM239.757 53.38C242.517 51.16 246.162 50.05 250.692 50.05C255.222 50.05 258.852 51.175 261.582 53.425C264.342 55.645 265.722 58.78 265.722 62.83V69.85C265.722 73.96 264.357 77.095 261.627 79.255C258.927 81.385 255.282 82.45 250.692 82.45C246.102 82.45 242.442 81.385 239.712 79.255C237.012 77.095 235.662 73.96 235.662 69.85V62.83C235.662 58.75 237.027 55.6 239.757 53.38ZM248.262 72.775C248.862 73.375 249.672 73.675 250.692 73.675C251.712 73.675 252.522 73.375 253.122 72.775C253.722 72.175 254.022 71.26 254.022 70.03V62.47C254.022 61.27 253.722 60.37 253.122 59.77C252.522 59.14 251.712 58.825 250.692 58.825C249.672 58.825 248.862 59.14 248.262 59.77C247.662 60.37 247.362 61.27 247.362 62.47V70.03C247.362 71.26 247.662 72.175 248.262 72.775ZM289.653 50.5H297.798C298.128 50.5 298.413 50.62 298.653 50.86C298.893 51.1 299.013 51.385 299.013 51.715V80.785C299.013 81.115 298.893 81.4 298.653 81.64C298.413 81.88 298.128 82 297.798 82H290.688C289.908 82 289.293 81.655 288.843 80.965L281.238 69.49V80.785C281.238 81.115 281.118 81.4 280.878 81.64C280.638 81.88 280.353 82 280.023 82H271.878C271.548 82 271.263 81.88 271.023 81.64C270.783 81.4 270.663 81.115 270.663 80.785V51.715C270.663 51.385 270.783 51.1 271.023 50.86C271.263 50.62 271.548 50.5 271.878 50.5H278.988C279.828 50.5 280.443 50.845 280.833 51.535L288.438 64V51.715C288.438 51.385 288.558 51.1 288.798 50.86C289.038 50.62 289.323 50.5 289.653 50.5Z" fill="#FFFAFA"/>
<path d="M104.43 36.76C102.03 35.96 100.29 34.99 99.21 33.85C98.15 32.71 97.62 31.33 97.62 29.71C97.62 27.89 98.23 26.45 99.45 25.39C100.67 24.33 102.38 23.8 104.58 23.8C106.44 23.8 108.06 24.01 109.44 24.43C109.92 24.57 110.3 24.86 110.58 25.3C110.88 25.72 111.03 26.19 111.03 26.71V26.98C111.03 27.36 110.86 27.66 110.52 27.88C110.18 28.08 109.83 28.11 109.47 27.97C107.97 27.39 106.44 27.1 104.88 27.1C103.88 27.1 103.12 27.33 102.6 27.79C102.08 28.25 101.82 28.89 101.82 29.71C101.82 31.15 102.76 32.18 104.64 32.8C107.34 33.66 109.21 34.64 110.25 35.74C111.31 36.84 111.84 38.26 111.84 40C111.84 44.2 109.25 46.3 104.07 46.3C102.45 46.3 100.98 46.05 99.66 45.55C99.18 45.37 98.8 45.06 98.52 44.62C98.26 44.18 98.13 43.69 98.13 43.15V42.79C98.13 42.41 98.29 42.14 98.61 41.98C98.93 41.8 99.26 41.79 99.6 41.95C100.92 42.61 102.31 42.94 103.77 42.94C106.31 42.94 107.58 41.98 107.58 40.06C107.58 39.28 107.34 38.64 106.86 38.14C106.38 37.62 105.57 37.16 104.43 36.76ZM129.878 35.05C129.878 29.85 127.978 27.25 124.178 27.25C120.378 27.25 118.478 29.85 118.478 35.05C118.478 40.25 120.378 42.85 124.178 42.85C127.978 42.85 129.878 40.25 129.878 35.05ZM131.468 43.33C129.688 45.31 127.258 46.3 124.178 46.3C121.098 46.3 118.658 45.31 116.858 43.33C115.078 41.35 114.188 38.59 114.188 35.05C114.188 31.51 115.078 28.75 116.858 26.77C118.658 24.79 121.098 23.8 124.178 23.8C127.258 23.8 129.688 24.79 131.468 26.77C133.268 28.75 134.168 31.51 134.168 35.05C134.168 38.59 133.268 41.35 131.468 43.33ZM153.469 38.2C153.469 43.6 150.769 46.3 145.369 46.3C139.969 46.3 137.269 43.6 137.269 38.2V25.81C137.269 25.35 137.439 24.95 137.779 24.61C138.119 24.27 138.519 24.1 138.979 24.1H139.819C140.279 24.1 140.679 24.27 141.019 24.61C141.359 24.95 141.529 25.35 141.529 25.81V38.44C141.529 40 141.839 41.13 142.459 41.83C143.099 42.51 144.089 42.85 145.429 42.85C146.769 42.85 147.749 42.51 148.369 41.83C149.009 41.13 149.329 40 149.329 38.44V25.81C149.329 25.35 149.499 24.95 149.839 24.61C150.179 24.27 150.579 24.1 151.039 24.1H151.759C152.219 24.1 152.619 24.27 152.959 24.61C153.299 24.95 153.469 25.35 153.469 25.81V38.2ZM158.861 27.58C158.401 27.58 158.001 27.42 157.661 27.1C157.321 26.76 157.151 26.36 157.151 25.9V25.81C157.151 25.35 157.321 24.95 157.661 24.61C158.001 24.27 158.401 24.1 158.861 24.1H171.641C172.101 24.1 172.501 24.27 172.841 24.61C173.181 24.95 173.351 25.35 173.351 25.81V25.9C173.351 26.36 173.181 26.76 172.841 27.1C172.501 27.42 172.101 27.58 171.641 27.58H167.621C167.461 27.58 167.381 27.67 167.381 27.85V44.29C167.381 44.75 167.211 45.15 166.871 45.49C166.531 45.83 166.131 46 165.671 46H164.831C164.371 46 163.971 45.83 163.631 45.49C163.291 45.15 163.121 44.75 163.121 44.29V27.85C163.121 27.67 163.041 27.58 162.881 27.58H158.861ZM179.034 46C178.574 46 178.174 45.83 177.834 45.49C177.514 45.15 177.354 44.75 177.354 44.29V25.81C177.354 25.35 177.514 24.95 177.834 24.61C178.174 24.27 178.574 24.1 179.034 24.1H179.844C180.304 24.1 180.704 24.27 181.044 24.61C181.384 24.95 181.554 25.35 181.554 25.81V32.62C181.554 32.78 181.634 32.86 181.794 32.86H189.294C189.454 32.86 189.534 32.78 189.534 32.62V25.81C189.534 25.35 189.704 24.95 190.044 24.61C190.384 24.27 190.784 24.1 191.244 24.1H192.054C192.514 24.1 192.904 24.27 193.224 24.61C193.564 24.95 193.734 25.35 193.734 25.81V44.29C193.734 44.75 193.564 45.15 193.224 45.49C192.904 45.83 192.514 46 192.054 46H191.244C190.784 46 190.384 45.83 190.044 45.49C189.704 45.15 189.534 44.75 189.534 44.29V36.34C189.534 36.16 189.454 36.07 189.294 36.07H181.794C181.634 36.07 181.554 36.16 181.554 36.34V44.29C181.554 44.75 181.384 45.15 181.044 45.49C180.704 45.83 180.304 46 179.844 46H179.034Z" fill="#FFFAFA"/>
</svg>
