<svg width="526" height="167" viewBox="0 0 526 167" fill="none" xmlns="http://www.w3.org/2000/svg">
<path d="M120.086 105.611C123.605 108.074 126.047 112.42 126.047 115.827C126.047 120.086 125.196 123.066 122.215 126.047C122.215 126.047 122.641 126.473 124.77 126.473C136.693 126.473 139.674 119.85 139.674 117.531C139.674 110.717 132.861 109.014 132.861 109.014C134.99 108.963 137.01 109.13 139.013 109.644C144.746 111.112 149.039 114.325 151.717 119.605C152.759 121.663 153.27 123.714 153.297 125.717C153.352 129.665 151.594 133.709 147.761 137.116C141.462 142.72 129.88 143.081 129.454 143.081C130.575 144.317 133.712 146.913 138.396 146.913C140.526 146.913 143.081 146.487 143.081 146.487C142.958 146.647 140.526 149.468 134.087 151.856C131.443 152.739 128.766 153.26 126.047 153.301C124.446 153.325 122.835 153.181 121.21 152.851C114.717 151.536 110.257 147.734 107.46 141.929C106.527 139.994 105.607 135.841 105.607 134.99C103.502 137.047 102.279 139.544 102.2 142.229C102.626 147.765 105.651 149.833 105.607 149.894C105.117 149.693 95.3871 147.765 95.3871 134.138C95.3428 131.951 95.3973 130.183 95.3871 128.176C95.37 124.664 93.7689 121.738 91.0197 119.472C86.39 115.657 81.7433 111.855 77.0761 108.084C73.8909 105.508 71.9048 102.34 71.8605 98.201C71.8332 95.6187 70.6102 93.728 68.5935 92.2052C67.3262 91.2479 66.0419 90.2941 64.8938 89.2073C62.8668 87.286 62.4887 84.9081 63.1803 82.2339C63.2995 82.3327 63.3983 82.3735 63.4119 82.4349C64.2057 85.6508 66.6585 86.8193 69.6495 87.303C71.2541 87.5619 72.8893 87.6743 74.4734 88.0116C76.1359 88.3693 77.0795 89.5412 77.4611 91.1457C77.6961 92.1371 77.8835 93.1421 78.1152 94.1334C78.5614 96.0445 79.5323 96.8417 81.5116 96.9678C82.813 97.0495 84.1177 97.1142 85.4157 97.2437C87.4495 97.4481 89.2141 98.2623 90.7914 99.5466C96.2898 104.023 101.815 108.469 107.317 112.938C108.731 114.083 111.143 115.827 113.698 115.827C116.679 115.827 120.511 113.698 120.511 109.44C120.511 106.885 120.086 105.611 120.086 105.611Z" fill="#141414"/>
<path d="M88.2026 122.889C84.3223 119.69 80.4217 116.512 76.5142 113.344C74.3305 116.883 65.9262 129.451 54.0676 129.451C48.1876 129.451 42.8051 126 40.0286 120.62C38.3594 117.384 37.4736 113.63 37.4736 110.295C37.4736 95.8164 46.5865 87.8958 46.8045 87.6131C44.3313 87.0033 42.4678 87.2622 40.4545 88.601C38.4173 89.9569 34.7347 92.27 34.4655 92.4131C34.0669 92.4063 34.0669 92.4063 34.0669 91.9804L35.3444 83.4637C33.3822 84.1246 28.9569 86.4446 23.8469 91.5546C21.2919 94.1096 19.224 96.3785 19.224 96.3785C17.8852 91.5546 20.0144 83.0379 20.43 80.057C20.6753 78.3196 20.0042 78.3537 20.0042 78.3537C19.1525 78.3537 16.6077 80.9598 15.3302 82.2918C11.3818 86.4003 8.87452 91.0947 7.46075 96.6271C7.19503 97.6764 7.0281 99.0084 6.81348 100.071C6.89524 100.099 8.94265 97.0905 10.646 97.0905C11.4977 97.0905 11.5488 98.3952 11.5215 98.8551C11.4772 99.5671 11.2354 100.279 11.0105 100.971C9.42981 105.859 8.52704 110.802 8.48957 115.827C8.47253 118.13 8.63946 120.447 9.00397 122.784C9.6274 126.759 10.5949 129.669 12.3459 133.286C14.8192 138.396 19.2717 142.866 19.5851 143.081C19.3705 142.352 18.9447 141.36 18.8731 140.798C18.7301 139.711 18.5086 138.594 18.6279 137.521C18.7777 136.172 19.9565 135.865 20.9376 136.819C21.377 137.248 26.2009 141.81 29.0455 143.67C35.4943 147.881 42.2975 149.87 49.397 149.894C53.0865 149.908 56.8542 149.39 60.697 148.381C66.2567 146.92 71.1623 144.215 75.5365 140.563C81.1405 135.889 85.4568 129.893 88.8941 123.567C88.6693 123.339 88.4683 123.107 88.2026 122.889ZM106.697 75.2298C99.9113 79.7061 94.2494 87.1429 89.3063 93.5032C89.2722 93.5475 89.2518 93.5952 89.228 93.6395C90.7644 94.1982 92.2292 95.0022 93.5885 96.1093C95.4043 97.5878 97.2234 99.0561 99.0426 100.531C99.1891 100.235 99.3254 99.9657 99.4446 99.717C102.814 92.7776 106.881 84.4687 112.036 78.6603C117.071 72.9848 125.911 71.2303 132.472 74.3985C133.29 74.7937 133.951 74.9675 134.598 74.9436C135.259 74.9198 135.906 74.6949 136.693 74.2861C141.824 71.6357 147.366 70.3003 153.144 70.3378C154.282 70.348 156.708 70.6887 156.708 70.6887C154.578 68.5595 151.788 66.3962 149.363 65.0302C144.849 62.4922 140.209 61.3203 135.416 61.3203C128.602 61.3203 125.196 63.446 123.373 63.446C122.641 63.446 122.283 63.2485 122.031 62.9146C121.809 62.625 121.895 61.9744 122.065 61.569C123.067 59.6169 125.823 58.0669 126.047 57.9136C123.918 57.9136 119.224 60.4379 116.522 62.5296C114.707 63.9332 112.904 65.3538 111.075 66.7403C110.707 67.0197 110.264 67.2411 109.821 67.3705C108.619 67.7214 108.006 67.1287 108.36 65.9602C108.52 65.4355 108.765 64.9245 109.038 64.4476C109.477 63.6743 109.975 62.9316 110.486 62.1208C97.5164 70.2662 95.2953 81.4401 95.3872 81.3379C99.1959 77.1954 103.502 73.9625 108.588 71.5437C113.681 69.1216 119.234 67.7112 125.622 67.7112C125.622 67.7112 126.047 68.0553 126.047 68.137C126.047 68.137 123.492 68.1371 120.784 68.9444C115.671 70.1197 111.031 72.3681 106.697 75.2298Z" fill="#141414"/>
<path d="M57.0619 38.3252C57.0619 40.0286 57.5116 41.7217 57.9988 43.1389C59.266 46.8385 61.6984 49.8296 64.468 52.5413C67.2002 55.2155 70.0857 57.7365 72.8723 60.3562C75.6829 62.9964 78.1254 65.9091 79.5767 69.5066C80.3977 71.5404 80.8031 73.6491 80.4829 75.8362C80.3943 76.446 80.6191 76.739 81.1608 76.9706C82.5439 77.56 83.4228 78.5377 83.4978 80.0877C83.5319 80.8202 83.9883 80.7044 84.4278 80.4761C86.867 79.2088 87.9878 77.2909 88.1445 77.0796C88.4239 77.6622 88.5771 78.3844 88.5703 79.2088C88.5295 83.7942 84.4653 91.3196 80.6396 92.8185C80.6907 92.4847 80.7281 92.2155 80.7758 91.9464C81.3141 88.9213 79.8083 86.4412 76.8479 85.4533C74.8482 84.7856 73.196 84.7719 71.1077 84.7413C70.7874 84.7379 69.8915 84.7413 69.4043 84.7413C69.5644 84.3734 70.7432 81.9376 71.0055 80.9905C71.3802 79.6449 70.8896 78.6842 69.5099 78.381C68.0144 78.0505 66.4576 77.8427 64.928 77.8496C61.4123 77.8666 57.9272 78.289 54.5069 79.1168C54.03 79.2327 53.2601 79.4779 52.7933 79.6312C55.7742 79.6312 59.6067 80.9088 59.6067 80.9088C59.6067 80.9088 57.9034 84.3154 57.9034 86.4446C57.9034 88.148 58.755 89.4255 59.6067 89.4255C60.4584 89.4255 60.9319 88.8531 61.3203 88.5738C61.2419 89.0371 60.7718 91.4865 60.7071 92.638C60.6083 94.4469 61.3203 95.3872 63.4495 95.3872C63.8753 95.3872 64.3011 95.3872 64.727 95.3872C63.8753 98.368 57.4639 102.293 53.6552 102.201C53.4031 102.194 53.1681 102.17 52.9466 102.126C54.5069 101.349 56.8575 98.368 56.8575 97.0939L51.7747 97.7412C51.7747 97.7412 53.5087 95.5779 54.064 94.4912C55.5051 91.6807 55.6652 88.8089 53.7574 86.1244C52.1461 83.8555 49.5366 82.8846 46.8419 82.6155C42.5835 82.6155 40.3692 83.8078 40.0285 83.893C41.9669 79.6687 44.7331 77.0626 48.971 74.9505C45.5644 73.2471 42.1577 72.8213 42.1577 72.8213C45.5644 70.6921 50.6744 68.9888 54.5069 68.1371C54.0811 68.1371 53.0182 68.1507 52.8036 68.1371C40.0285 68.1371 35.0241 74.7393 34.9185 74.9505C36.9795 75.3048 38.3252 75.3763 40.8802 76.228C40.8802 76.228 34.0668 77.5055 23.8468 85.1705C23.9149 84.7856 25.1243 82.1897 25.1243 79.6347C25.1243 70.6921 13.8004 72.484 13.6267 72.3955C13.9027 72.1468 16.1817 70.2663 23.38 66.7915C24.7291 66.0624 28.5309 64.3046 28.5309 62.1754C28.5309 59.1946 22.6204 54.851 22.1434 54.5104C26.8276 54.5104 29.4576 54.9498 33.2151 55.7879C31.212 52.3676 30.6533 48.8042 31.5595 45.268C33.0107 47.9934 35.0956 50.1328 37.637 51.8089C39.974 53.3521 42.437 54.7114 44.8285 56.1762C46.6409 57.2868 48.5214 58.3156 50.1975 59.6C51.4852 60.5879 52.5038 61.9199 53.6314 63.102C53.8188 63.2996 53.9687 63.5313 54.139 63.7459C54.2378 63.6982 54.3332 63.6505 54.432 63.6028C54.1628 62.9317 53.9482 62.2333 53.6178 61.5895C52.2789 58.9833 50.2997 56.895 47.8502 55.2803C46.8453 54.616 46.2968 53.829 46.1026 52.715C45.5201 49.414 45.5064 46.1776 46.1401 43.006C46.4842 41.2924 48.5452 37.4735 48.5452 37.4735V37.8994C48.661 42.4132 50.378 46.0277 53.2294 49.3969C56.2205 52.9297 60.1348 55.546 63.5074 58.6972C69.4111 64.3012 71.9253 67.4455 72.392 68.1337C72.392 68.1337 72.2183 67.4047 72.1126 67.1696C70.4911 63.4529 67.8645 60.4584 64.9245 57.7058C62.3695 55.3143 59.7736 52.9603 57.1743 50.6131C56.2341 49.7614 55.6788 48.7497 55.5289 47.513C54.9327 42.5836 57.0176 38.3559 57.0619 38.3252ZM64.727 68.1337C64.727 68.1337 64.9995 69.8268 65.4049 70.6649C67.282 74.5212 71.5403 74.9471 71.5403 74.9471C71.5403 74.9471 71.5403 71.9662 67.282 68.9854C66.0249 68.1064 64.727 68.1337 64.727 68.1337Z" fill="#141414"/>
<path d="M27.2534 43.0094C28.105 38.751 30.66 34.0668 30.66 34.0668C30.66 34.0668 32.2373 39.4256 34.9184 43.0094C36.2436 44.7809 38.0151 46.7499 40.0761 48.1092C40.4645 48.3647 40.8563 48.6168 41.2548 48.8655C41.1799 46.5694 41.3604 44.321 41.7965 42.1407C42.1678 40.284 43.4726 37.6166 44.2834 36.0632V35.7702C44.2868 29.1851 48.862 23.8468 54.5068 23.8468C60.1517 23.8468 64.7269 29.1851 64.7269 35.7702C64.7269 40.4612 64.3487 42.7845 63.8037 44.2869C63.756 44.4129 63.7083 44.5288 63.6606 44.648C64.1069 45.3702 64.6383 46.0992 65.2447 46.8453C65.2822 46.8896 65.3128 46.9339 65.3503 46.9782C65.9874 47.7481 66.713 48.5418 67.5647 49.3765C69.1692 50.947 70.8896 52.5174 72.5486 54.0334C73.6728 55.0588 74.797 56.0842 75.9042 57.1267C76.1733 57.3788 76.388 57.6275 76.6435 57.8796C81.9034 52.17 85.167 44.7706 85.167 37.4735C85.167 20.4401 71.4415 10.22 54.5068 10.22C37.5722 10.22 23.8467 20.8659 23.8467 37.4735C23.8467 41.616 24.93 45.7824 26.7935 49.6694C26.6708 47.8332 26.8854 44.8558 27.2534 43.0094Z" fill="#141414"/>
<path d="M173.808 86.7833H195.12C202.323 86.7833 208.243 88.584 212.88 92.1853C217.567 95.7373 219.91 100.72 219.91 107.133V118.159C219.91 124.869 217.641 129.95 213.102 133.403C208.563 136.857 202.594 138.583 195.194 138.583H173.808C173.265 138.583 172.797 138.386 172.402 137.991C172.007 137.597 171.81 137.128 171.81 136.585V88.7813C171.81 88.2387 172.007 87.77 172.402 87.3753C172.797 86.9807 173.265 86.7833 173.808 86.7833ZM190.31 101.213V124.153H195.12C196.797 124.153 198.129 123.66 199.116 122.673C200.152 121.637 200.67 120.133 200.67 118.159V107.133C200.67 103.187 198.82 101.213 195.12 101.213H190.31ZM275.689 136.141C275.837 136.437 275.911 136.758 275.911 137.103C275.911 137.449 275.738 137.794 275.393 138.139C275.097 138.435 274.727 138.583 274.283 138.583H259.113C257.583 138.583 256.523 137.917 255.931 136.585L249.567 122.451H246.533V136.585C246.533 137.128 246.335 137.597 245.941 137.991C245.546 138.386 245.077 138.583 244.535 138.583H230.031C229.488 138.583 229.019 138.386 228.625 137.991C228.23 137.597 228.033 137.128 228.033 136.585V88.7813C228.033 88.2387 228.23 87.77 228.625 87.3753C229.019 86.9807 229.488 86.7833 230.031 86.7833H251.935C259.039 86.7833 264.589 88.3867 268.585 91.5933C272.581 94.7507 274.579 99.314 274.579 105.283C274.579 111.203 271.915 115.865 266.587 119.269L275.689 136.141ZM246.533 100.547V108.391H251.935C253.02 108.391 253.859 108.046 254.451 107.355C255.043 106.615 255.339 105.703 255.339 104.617C255.339 103.532 255.043 102.595 254.451 101.805C253.908 100.967 253.069 100.547 251.935 100.547H246.533ZM299.161 86.7833H315.219C316.995 86.7833 318.105 87.5973 318.549 89.2253L335.051 136.437C335.1 136.585 335.125 136.832 335.125 137.177C335.125 137.473 334.952 137.794 334.607 138.139C334.311 138.435 333.941 138.583 333.497 138.583H319.807C318.327 138.583 317.365 137.967 316.921 136.733L315.145 131.849H299.235L297.459 136.733C297.015 137.967 296.053 138.583 294.573 138.583H280.883C280.439 138.583 280.044 138.435 279.699 138.139C279.403 137.794 279.255 137.473 279.255 137.177C279.255 136.832 279.279 136.585 279.329 136.437L295.831 89.2253C296.275 87.5973 297.385 86.7833 299.161 86.7833ZM303.009 117.419H311.371L307.153 103.655L303.009 117.419ZM367.622 107.355H387.972C388.515 107.355 388.983 107.553 389.378 107.947C389.773 108.342 389.97 108.811 389.97 109.353V118.973C389.97 125.485 387.651 130.517 383.014 134.069C378.377 137.572 372.185 139.323 364.44 139.323C356.744 139.323 350.676 137.621 346.236 134.217C341.796 130.764 339.576 125.609 339.576 118.751V106.319C339.576 99.758 341.845 94.7507 346.384 91.2973C350.923 87.7947 356.966 86.0433 364.514 86.0433C372.111 86.0433 378.253 87.6467 382.94 90.8533C387.627 94.0107 389.97 97.908 389.97 102.545C389.97 102.989 389.797 103.384 389.452 103.729C389.156 104.025 388.786 104.173 388.342 104.173H371.988C371.001 104.173 370.286 103.902 369.842 103.359C368.855 102.077 368.115 101.337 367.622 101.139C366.487 100.695 365.451 100.473 364.514 100.473C360.715 100.473 358.816 102.323 358.816 106.023V118.603C358.816 122.797 360.839 124.893 364.884 124.893C369.028 124.893 371.1 123.117 371.1 119.565H367.622C367.079 119.565 366.611 119.368 366.216 118.973C365.821 118.579 365.624 118.11 365.624 117.567V109.353C365.624 108.811 365.821 108.342 366.216 107.947C366.611 107.553 367.079 107.355 367.622 107.355ZM403.4 91.5193C407.939 87.8687 413.933 86.0433 421.382 86.0433C428.831 86.0433 434.801 87.8933 439.29 91.5933C443.829 95.244 446.098 100.399 446.098 107.059V118.603C446.098 125.362 443.853 130.517 439.364 134.069C434.924 137.572 428.93 139.323 421.382 139.323C413.834 139.323 407.815 137.572 403.326 134.069C398.886 130.517 396.666 125.362 396.666 118.603V107.059C396.666 100.35 398.911 95.17 403.4 91.5193ZM417.386 123.413C418.373 124.4 419.705 124.893 421.382 124.893C423.059 124.893 424.391 124.4 425.378 123.413C426.365 122.427 426.858 120.922 426.858 118.899V106.467C426.858 104.494 426.365 103.014 425.378 102.027C424.391 100.991 423.059 100.473 421.382 100.473C419.705 100.473 418.373 100.991 417.386 102.027C416.399 103.014 415.906 104.494 415.906 106.467V118.899C415.906 120.922 416.399 122.427 417.386 123.413ZM485.452 86.7833H498.846C499.389 86.7833 499.857 86.9807 500.252 87.3753C500.647 87.77 500.844 88.2387 500.844 88.7813V136.585C500.844 137.128 500.647 137.597 500.252 137.991C499.857 138.386 499.389 138.583 498.846 138.583H487.154C485.871 138.583 484.86 138.016 484.12 136.881L471.614 118.011V136.585C471.614 137.128 471.417 137.597 471.022 137.991C470.627 138.386 470.159 138.583 469.616 138.583H456.222C455.679 138.583 455.211 138.386 454.816 137.991C454.421 137.597 454.224 137.128 454.224 136.585V88.7813C454.224 88.2387 454.421 87.77 454.816 87.3753C455.211 86.9807 455.679 86.7833 456.222 86.7833H467.914C469.295 86.7833 470.307 87.3507 470.948 88.4853L483.454 108.983V88.7813C483.454 88.2387 483.651 87.77 484.046 87.3753C484.441 86.9807 484.909 86.7833 485.452 86.7833Z" fill="#141414"/>
<path d="M181.612 62.859C177.452 61.4723 174.436 59.791 172.564 57.815C170.727 55.839 169.808 53.447 169.808 50.639C169.808 47.4843 170.865 44.9883 172.98 43.151C175.095 41.3137 178.059 40.395 181.872 40.395C185.096 40.395 187.904 40.759 190.296 41.487C191.128 41.7297 191.787 42.2323 192.272 42.995C192.792 43.723 193.052 44.5377 193.052 45.439V45.907C193.052 46.5657 192.757 47.0857 192.168 47.467C191.579 47.8137 190.972 47.8657 190.348 47.623C187.748 46.6177 185.096 46.115 182.392 46.115C180.659 46.115 179.341 46.5137 178.44 47.311C177.539 48.1083 177.088 49.2177 177.088 50.639C177.088 53.135 178.717 54.9203 181.976 55.995C186.656 57.4857 189.897 59.1843 191.7 61.091C193.537 62.9977 194.456 65.459 194.456 68.475C194.456 75.755 189.967 79.395 180.988 79.395C178.18 79.395 175.632 78.9617 173.344 78.095C172.512 77.783 171.853 77.2457 171.368 76.483C170.917 75.7203 170.692 74.871 170.692 73.935V73.311C170.692 72.6523 170.969 72.1843 171.524 71.907C172.079 71.595 172.651 71.5777 173.24 71.855C175.528 72.999 177.937 73.571 180.468 73.571C184.871 73.571 187.072 71.907 187.072 68.579C187.072 67.227 186.656 66.1177 185.824 65.251C184.992 64.3497 183.588 63.5523 181.612 62.859ZM225.722 59.895C225.722 50.8817 222.428 46.375 215.842 46.375C209.255 46.375 205.962 50.8817 205.962 59.895C205.962 68.9083 209.255 73.415 215.842 73.415C222.428 73.415 225.722 68.9083 225.722 59.895ZM228.478 74.247C225.392 77.679 221.18 79.395 215.842 79.395C210.503 79.395 206.274 77.679 203.154 74.247C200.068 70.815 198.526 66.031 198.526 59.895C198.526 53.759 200.068 48.975 203.154 45.543C206.274 42.111 210.503 40.395 215.842 40.395C221.18 40.395 225.392 42.111 228.478 45.543C231.598 48.975 233.158 53.759 233.158 59.895C233.158 66.031 231.598 70.815 228.478 74.247ZM266.613 65.355C266.613 74.715 261.933 79.395 252.573 79.395C243.213 79.395 238.533 74.715 238.533 65.355V43.879C238.533 43.0817 238.828 42.3883 239.417 41.799C240.007 41.2097 240.7 40.915 241.497 40.915H242.953C243.751 40.915 244.444 41.2097 245.033 41.799C245.623 42.3883 245.917 43.0817 245.917 43.879V65.771C245.917 68.475 246.455 70.4337 247.529 71.647C248.639 72.8257 250.355 73.415 252.677 73.415C255 73.415 256.699 72.8257 257.773 71.647C258.883 70.4337 259.437 68.475 259.437 65.771V43.879C259.437 43.0817 259.732 42.3883 260.321 41.799C260.911 41.2097 261.604 40.915 262.401 40.915H263.649C264.447 40.915 265.14 41.2097 265.729 41.799C266.319 42.3883 266.613 43.0817 266.613 43.879V65.355ZM275.96 46.947C275.162 46.947 274.469 46.6697 273.88 46.115C273.29 45.5257 272.996 44.8323 272.996 44.035V43.879C272.996 43.0817 273.29 42.3883 273.88 41.799C274.469 41.2097 275.162 40.915 275.96 40.915H298.112C298.909 40.915 299.602 41.2097 300.192 41.799C300.781 42.3883 301.076 43.0817 301.076 43.879V44.035C301.076 44.8323 300.781 45.5257 300.192 46.115C299.602 46.6697 298.909 46.947 298.112 46.947H291.144C290.866 46.947 290.728 47.103 290.728 47.415V75.911C290.728 76.7083 290.433 77.4017 289.844 77.991C289.254 78.5803 288.561 78.875 287.764 78.875H286.308C285.51 78.875 284.817 78.5803 284.228 77.991C283.638 77.4017 283.344 76.7083 283.344 75.911V47.415C283.344 47.103 283.205 46.947 282.928 46.947H275.96ZM310.926 78.875C310.129 78.875 309.436 78.5803 308.846 77.991C308.292 77.4017 308.014 76.7083 308.014 75.911V43.879C308.014 43.0817 308.292 42.3883 308.846 41.799C309.436 41.2097 310.129 40.915 310.926 40.915H312.33C313.128 40.915 313.821 41.2097 314.41 41.799C315 42.3883 315.294 43.0817 315.294 43.879V55.683C315.294 55.9603 315.433 56.099 315.71 56.099H328.71C328.988 56.099 329.126 55.9603 329.126 55.683V43.879C329.126 43.0817 329.421 42.3883 330.01 41.799C330.6 41.2097 331.293 40.915 332.09 40.915H333.494C334.292 40.915 334.968 41.2097 335.522 41.799C336.112 42.3883 336.406 43.0817 336.406 43.879V75.911C336.406 76.7083 336.112 77.4017 335.522 77.991C334.968 78.5803 334.292 78.875 333.494 78.875H332.09C331.293 78.875 330.6 78.5803 330.01 77.991C329.421 77.4017 329.126 76.7083 329.126 75.911V62.131C329.126 61.819 328.988 61.663 328.71 61.663H315.71C315.433 61.663 315.294 61.819 315.294 62.131V75.911C315.294 76.7083 315 77.4017 314.41 77.991C313.821 78.5803 313.128 78.875 312.33 78.875H310.926Z" fill="#BD111F"/>
</svg>
